<svg width="30" height="29" viewBox="0 0 30 29" fill="none" xmlns="http://www.w3.org/2000/svg">
<g clip-path="url(#clip0_6_923)">
<path d="M17.8896 14.5L28.7323 3.65684C29.0305 3.35836 29.1951 2.96014 29.1956 2.53551C29.1956 2.11065 29.031 1.71196 28.7323 1.41394L27.7821 0.464014C27.4834 0.164819 27.0852 0.000957489 26.6601 0.000957489C26.2357 0.000957489 25.8374 0.164819 25.5387 0.464014L14.696 11.3065L3.85286 0.464014C3.55461 0.164819 3.15615 0.000957489 2.73129 0.000957489C2.3069 0.000957489 1.90844 0.164819 1.61019 0.464014L0.659557 1.41394C0.04089 2.03261 0.04089 3.03888 0.659557 3.65684L11.5025 14.5L0.659557 25.3427C0.361069 25.6417 0.196736 26.0399 0.196736 26.4645C0.196736 26.8891 0.361069 27.2874 0.659557 27.5861L1.60995 28.536C1.90821 28.835 2.3069 28.9991 2.73105 28.9991C3.15591 28.9991 3.55437 28.835 3.85262 28.536L14.6958 17.6933L25.5385 28.536C25.8372 28.835 26.2354 28.9991 26.6598 28.9991H26.6603C27.0849 28.9991 27.4831 28.835 27.7819 28.536L28.732 27.5861C29.0303 27.2876 29.1948 26.8891 29.1948 26.4645C29.1948 26.0399 29.0303 25.6417 28.732 25.3429L17.8896 14.5Z" fill="white"/>
</g>
<defs>
<clipPath id="clip0_6_923">
<rect width="29" height="29" fill="white" transform="translate(0.196777)"/>
</clipPath>
</defs>
</svg>
