<svg width="23" height="24" viewBox="0 0 23 24" fill="none" xmlns="http://www.w3.org/2000/svg">
<g clip-path="url(#clip0_13_1154)">
<path d="M2.20828 8.53489C2.49923 8.7402 3.37625 9.34997 4.83939 10.3639C6.30257 11.3778 7.42347 12.1585 8.20214 12.706C8.28768 12.766 8.46944 12.8964 8.74748 13.0975C9.02557 13.2987 9.25664 13.4613 9.4405 13.5854C9.6245 13.7094 9.84694 13.8484 10.108 14.0024C10.369 14.1563 10.6151 14.272 10.8461 14.3486C11.0772 14.4258 11.2911 14.4641 11.4878 14.4641H11.5007H11.5137C11.7104 14.4641 11.9244 14.4258 12.1555 14.3486C12.3864 14.272 12.6327 14.1561 12.8935 14.0024C13.1544 13.8483 13.3768 13.7093 13.5608 13.5854C13.7448 13.4613 13.9757 13.2987 14.2539 13.0975C14.5319 12.8963 14.7139 12.766 14.7994 12.706C15.5865 12.1585 17.5889 10.768 20.806 8.53462C21.4306 8.09843 21.9525 7.5721 22.3717 6.95599C22.7912 6.34016 23.0007 5.69411 23.0007 5.01822C23.0007 4.45341 22.7974 3.96992 22.3909 3.5678C21.9845 3.16559 21.5031 2.9646 20.9471 2.9646H2.05422C1.39541 2.9646 0.888408 3.18704 0.533311 3.63191C0.178259 4.07687 0.000732422 4.63305 0.000732422 5.3004C0.000732422 5.83945 0.236115 6.4236 0.706656 7.05247C1.17715 7.68138 1.67786 8.17557 2.20828 8.53489Z" fill="#CFCFCF"/>
<path d="M21.7171 9.90809C18.9108 11.8075 16.78 13.2836 15.3256 14.3362C14.8379 14.6954 14.4422 14.9758 14.1384 15.1768C13.8345 15.3779 13.4304 15.5832 12.9255 15.7928C12.4207 16.0026 11.9503 16.1072 11.5139 16.1072H11.5008H11.4879C11.0515 16.1072 10.5808 16.0026 10.0761 15.7928C9.57132 15.5832 9.16695 15.3779 8.8632 15.1768C8.55953 14.9758 8.16374 14.6954 7.67608 14.3362C6.52087 13.4891 4.39461 12.0129 1.29718 9.90809C0.809333 9.58316 0.377228 9.21071 0.000732422 8.7915V18.9821C0.000732422 19.5471 0.201725 20.0304 0.603935 20.4325C1.00605 20.8348 1.48959 21.0359 2.05435 21.0359H20.9473C21.5119 21.0359 21.9954 20.8348 22.3976 20.4325C22.7999 20.0302 23.0008 19.5472 23.0008 18.9821V8.7915C22.6328 9.20203 22.2051 9.57448 21.7171 9.90809Z" fill="#CFCFCF"/>
</g>
<defs>
<clipPath id="clip0_13_1154">
<rect width="23" height="23" fill="white" transform="translate(0 0.5)"/>
</clipPath>
</defs>
</svg>
